<svg width="909" height="715" viewBox="0 0 909 715" fill="none" xmlns="http://www.w3.org/2000/svg">
<path d="M145.876 0H752.955C775.68 0 794.077 18.6824 794.077 41.7604V445.735H104.538V41.9803C104.538 18.9023 122.934 0.219962 145.659 0.219962L145.876 0Z" fill="#3F81A8"/>
<path d="M785.42 41.9804V437.163H113.412V41.9804C113.412 23.7374 127.913 9.01178 145.876 9.01178H752.956C770.919 9.01178 785.42 23.7374 785.42 41.9804Z" fill="#B9D9EE"/>
<path fill-rule="evenodd" clip-rule="evenodd" d="M756.851 417.761H141.98C133.857 417.761 127.263 411.063 127.263 402.815V37.7425C127.263 29.494 133.857 22.7969 141.98 22.7969H756.851C764.973 22.7969 771.568 29.494 771.568 37.7425V402.815C771.568 411.063 764.973 417.761 756.851 417.761Z" fill="#E7F3F7"/>
<path d="M795.59 445.955H104.535L0 686.406H908.996L795.588 445.955H795.59Z" fill="#7CB2DE"/>
<path d="M909 686.404H0.00390625V714.318H909V686.404Z" fill="#0E63A5"/>
<path d="M788.885 591.017H109.734L181.805 464.198H716.814L788.885 591.017Z" fill="#B9D9EE"/>
<path d="M198.901 471.671H248.246L240.455 489.913H189.378L198.901 471.671Z" fill="#7CB2DE"/>
<path d="M259.284 471.671H308.413L303.219 489.913H251.926L259.284 471.671Z" fill="#7CB2DE"/>
<path d="M395.201 471.671H444.329L444.113 489.913H393.036L395.201 471.671Z" fill="#7CB2DE"/>
<path d="M328.974 471.671H378.319L375.505 489.913H324.429L328.974 471.671Z" fill="#7CB2DE"/>
<path d="M462.077 471.671H511.423L513.803 489.913H462.51L462.077 471.671Z" fill="#7CB2DE"/>
<path d="M526.574 471.671H575.92L580.681 489.913H529.604L526.574 471.671Z" fill="#7CB2DE"/>
<path d="M589.768 471.671H638.897L646.039 489.913H594.962L589.768 471.671Z" fill="#7CB2DE"/>
<path d="M650.588 471.671H699.717L709.239 489.913H658.163L650.588 471.671Z" fill="#7CB2DE"/>
<path d="M246.083 515.627H175.96L187.214 493.868H254.523L246.083 515.627Z" fill="#7CB2DE"/>
<path d="M299.54 515.627H259.068L266.86 493.868H305.817L299.54 515.627Z" fill="#7CB2DE"/>
<path d="M377.67 515.627H311.876L317.503 493.868H380.7L377.67 515.627Z" fill="#7CB2DE"/>
<path d="M433.94 515.627H393.469L395.849 493.868H434.59L433.94 515.627Z" fill="#7CB2DE"/>
<path d="M491.945 515.627H451.473V493.868H490.214L491.945 515.627Z" fill="#7CB2DE"/>
<path d="M547.352 515.627H506.663L504.282 493.868H543.239L547.352 515.627Z" fill="#7CB2DE"/>
<path d="M636.516 515.849H582.41L576.782 493.869H628.725L636.516 515.849Z" fill="#7CB2DE"/>
<path d="M722.871 515.849H649.719L641.278 493.869H711.401L722.871 515.849Z" fill="#7CB2DE"/>
<path d="M272.487 545.958H159.944L173.147 520.902H280.495L272.487 545.958Z" fill="#7CB2DE"/>
<path d="M339.795 545.958H283.74L291.315 520.902H344.773L339.795 545.958Z" fill="#7CB2DE"/>
<path d="M415.112 545.958H351.267L355.595 520.902H416.628L415.112 545.958Z" fill="#7CB2DE"/>
<path d="M476.58 545.958H430.48L431.346 520.902H475.281L476.58 545.958Z" fill="#7CB2DE"/>
<path d="M539.773 545.958H492.592L490.645 520.902H535.662L539.773 545.958Z" fill="#7CB2DE"/>
<path d="M600.806 545.958H552.543L547.781 520.902H593.88L600.806 545.958Z" fill="#7CB2DE"/>
<path d="M739.103 546.617H628.292L620.068 520.902H725.468L739.103 546.617Z" fill="#7CB2DE"/>
<path d="M191.975 579.586H142.413L156.481 552.772H203.662L191.975 579.586Z" fill="#7CB2DE"/>
<path d="M263.18 579.586H216.432L227.037 552.772H271.621L263.18 579.586Z" fill="#7CB2DE"/>
<path d="M604.27 579.586H281.144L288.718 552.772H597.344L604.27 579.586Z" fill="#7CB2DE"/>
<path d="M659.459 579.586H620.502L612.711 552.772H649.937L659.459 579.586Z" fill="#7CB2DE"/>
<path d="M755.554 579.586H697.984L686.729 552.772H741.702L755.554 579.586Z" fill="#7CB2DE"/>
<path d="M601.023 674.536H296.076C286.553 674.536 283.091 665.085 288.285 653.876L304.95 617.61C308.845 609.258 318.152 602.664 325.727 602.664H570.939C578.73 602.664 587.82 609.258 591.716 617.61L608.381 653.876C613.576 665.085 610.113 674.536 600.59 674.536H601.023Z" fill="#1162A3"/>
</svg>
